<svg xmlns="http://www.w3.org/2000/svg" x="0px" y="0px"
width="64" height="64"
viewBox="0 0 172 172"
style=" fill:#000000;"><defs><linearGradient x1="86" y1="102.75388" x2="86" y2="122.54463" gradientUnits="userSpaceOnUse" id="color-1_STWZEeUsjZE7_gr1"><stop offset="0" stop-color="#8ab4ff"></stop><stop offset="1" stop-color="#e492ff"></stop></linearGradient><linearGradient x1="134.375" y1="102.75388" x2="134.375" y2="122.54463" gradientUnits="userSpaceOnUse" id="color-2_STWZEeUsjZE7_gr2"><stop offset="0" stop-color="#8ab4ff"></stop><stop offset="1" stop-color="#e492ff"></stop></linearGradient><linearGradient x1="110.1875" y1="134.77544" x2="110.1875" y2="154.71131" gradientUnits="userSpaceOnUse" id="color-3_STWZEeUsjZE7_gr3"><stop offset="0" stop-color="#8ab4ff"></stop><stop offset="1" stop-color="#e492ff"></stop></linearGradient><linearGradient x1="37.625" y1="102.75388" x2="37.625" y2="122.54463" gradientUnits="userSpaceOnUse" id="color-4_STWZEeUsjZE7_gr4"><stop offset="0" stop-color="#8ab4ff"></stop><stop offset="1" stop-color="#e492ff"></stop></linearGradient><linearGradient x1="61.8125" y1="134.77544" x2="61.8125" y2="154.71131" gradientUnits="userSpaceOnUse" id="color-5_STWZEeUsjZE7_gr5"><stop offset="0" stop-color="#8ab4ff"></stop><stop offset="1" stop-color="#e492ff"></stop></linearGradient><linearGradient x1="86" y1="15.72456" x2="86" y2="98.54794" gradientUnits="userSpaceOnUse" id="color-6_STWZEeUsjZE7_gr6"><stop offset="0" stop-color="#1a6dff"></stop><stop offset="1" stop-color="#c822ff"></stop></linearGradient><linearGradient x1="45.6875" y1="15.72456" x2="45.6875" y2="98.54794" gradientUnits="userSpaceOnUse" id="color-7_STWZEeUsjZE7_gr7"><stop offset="0" stop-color="#1a6dff"></stop><stop offset="1" stop-color="#c822ff"></stop></linearGradient><linearGradient x1="76.59375" y1="15.72456" x2="76.59375" y2="98.54794" gradientUnits="userSpaceOnUse" id="color-8_STWZEeUsjZE7_gr8"><stop offset="0" stop-color="#1a6dff"></stop><stop offset="1" stop-color="#c822ff"></stop></linearGradient></defs><g fill="none" fill-rule="nonzero" stroke="none" stroke-width="1" stroke-linecap="butt" stroke-linejoin="miter" stroke-miterlimit="10" stroke-dasharray="" stroke-dashoffset="0" font-family="none" font-weight="none" font-size="none" text-anchor="none" style="mix-blend-mode: normal"><path d="M0,172v-172h172v172z" fill="#393c41"></path><g><path d="M95.503,107.17213l-3.80012,-3.80012l-3.01538,3.01537v-4.26237h-5.375v4.26237l-3.01538,-3.01537l-3.80012,3.80012l3.01537,3.01538h-4.26237v5.375h4.26237l-3.01537,3.01538l3.80012,3.80012l3.01538,-3.01537v4.26237h5.375v-4.26237l3.01538,3.01537l3.80012,-3.80012l-3.01537,-3.01538h4.26237v-5.375h-4.26237z" fill="url(#color-1_STWZEeUsjZE7_gr1)"></path><path d="M145.125,110.1875h-4.26237l3.01538,-3.01538l-3.80013,-3.80012l-3.01538,3.01537v-4.26237h-5.375v4.26237l-3.01538,-3.01537l-3.80012,3.80012l3.01537,3.01538h-4.26237v5.375h4.26237l-3.01537,3.01538l3.80012,3.80012l3.01538,-3.01537v4.26237h5.375v-4.26237l3.01538,3.01537l3.80013,-3.80012l-3.01538,-3.01538h4.26237z" fill="url(#color-2_STWZEeUsjZE7_gr2)"></path><path d="M119.6905,139.42213l-3.80012,-3.80013l-3.01538,3.01538v-4.26237h-5.375v4.26237l-3.01538,-3.01538l-3.80012,3.80013l3.01537,3.01538h-4.26237v5.375h4.26237l-3.01537,3.01538l3.80012,3.80013l3.01538,-3.01538v4.26237h5.375v-4.26237l3.01538,3.01538l3.80012,-3.80013l-3.01537,-3.01538h4.26237v-5.375h-4.26237z" fill="url(#color-3_STWZEeUsjZE7_gr3)"></path><path d="M47.128,107.17213l-3.80013,-3.80012l-3.01537,3.01537v-4.26237h-5.375v4.26237l-3.01537,-3.01537l-3.80013,3.80012l3.01538,3.01538h-4.26238v5.375h4.26238l-3.01538,3.01538l3.80013,3.80012l3.01537,-3.01537v4.26237h5.375v-4.26237l3.01537,3.01537l3.80013,-3.80012l-3.01537,-3.01538h4.26237v-5.375h-4.26237z" fill="url(#color-4_STWZEeUsjZE7_gr4)"></path><path d="M71.3155,139.42213l-3.80012,-3.80013l-3.01538,3.01538v-4.26237h-5.375v4.26237l-3.01537,-3.01538l-3.80013,3.80013l3.01537,3.01538h-4.26237v5.375h4.26237l-3.01537,3.01538l3.80013,3.80013l3.01537,-3.01538v4.26237h5.375v-4.26237l3.01538,3.01538l3.80012,-3.80013l-3.01537,-3.01538h4.26237v-5.375h-4.26237z" fill="url(#color-5_STWZEeUsjZE7_gr5)"></path><path d="M135.71875,61.8125h-4.39944c0.24456,-1.33569 0.36819,-2.68213 0.36819,-4.03125c0,-12.59631 -10.24744,-22.84375 -22.84375,-22.84375c-1.83019,0 -3.64425,0.22306 -5.42338,0.66381c-3.73831,-11.44337 -14.58506,-19.47631 -26.82662,-19.47631c-15.56062,0 -28.21875,12.65813 -28.21875,28.21875v4.03125h-5.375c-13.33537,0 -24.1875,10.85213 -24.1875,24.1875c0,13.33538 10.85213,24.1875 24.1875,24.1875h92.71875c9.632,0 17.46875,-7.83675 17.46875,-17.46875c0,-9.632 -7.83675,-17.46875 -17.46875,-17.46875zM135.71875,91.375h-92.71875c-10.37375,0 -18.8125,-8.43875 -18.8125,-18.8125c0,-10.37375 8.43875,-18.8125 18.8125,-18.8125h18.8125v-5.375h-8.0625v-4.03125c0,-12.59631 10.24744,-22.84375 22.84375,-22.84375c10.71237,0 20.10519,7.59756 22.33581,18.06538l0.50794,2.39187v9.10525h5.375v-10.20981c1.32762,-0.31981 2.67137,-0.54019 4.03125,-0.54019c9.632,0 17.46875,7.83675 17.46875,17.46875c0,1.35181 -0.22306,2.69556 -0.54556,4.03125h-7.51694v5.375h17.46875c6.66769,0 12.09375,5.42606 12.09375,12.09375c0,6.66769 -5.42606,12.09375 -12.09375,12.09375z" fill="url(#color-6_STWZEeUsjZE7_gr6)"></path><path d="M29.5625,72.5625c0,7.40944 6.02806,13.4375 13.4375,13.4375v-5.375c-4.44512,0 -8.0625,-3.61737 -8.0625,-8.0625c0,-4.44513 3.61738,-8.0625 8.0625,-8.0625h18.8125v-5.375h-18.8125c-7.40944,0 -13.4375,6.02806 -13.4375,13.4375z" fill="url(#color-7_STWZEeUsjZE7_gr7)"></path><path d="M76.59375,26.875c-6.59512,0 -12.55869,3.64963 -15.56331,9.52719l4.78375,2.44563c2.0855,-4.06887 6.2135,-6.59781 10.77956,-6.59781c4.56606,0 8.69406,2.52894 10.77687,6.59781l4.78375,-2.44563c-3.00194,-5.87756 -8.9655,-9.52719 -15.56063,-9.52719z" fill="url(#color-8_STWZEeUsjZE7_gr8)"></path></g></g></svg>