<svg xmlns="http://www.w3.org/2000/svg" x="0px" y="0px"
width="30" height="30"
viewBox="0 0 172 172"
style=" fill:#000000;"><g fill="none" fill-rule="nonzero" stroke="none" stroke-width="1" stroke-linecap="butt" stroke-linejoin="miter" stroke-miterlimit="10" stroke-dasharray="" stroke-dashoffset="0" font-family="none" font-weight="none" font-size="none" text-anchor="none" style="mix-blend-mode: normal"><path d="M0,172v-172h172v172z" fill="#393c41"></path><g fill="#0e9bec"><path d="M106.64,95.00313v-2.12313h10.32c1.90813,0 3.44,-1.53187 3.44,-3.44c0,-1.89469 -1.53187,-3.44 -3.44,-3.44h-10.32v-6.88h10.32c1.90813,0 3.44,-1.54531 3.44,-3.44c0,-1.89469 -1.53187,-3.44 -3.44,-3.44h-10.32v-6.88h10.32c1.90813,0 3.44,-1.54531 3.44,-3.44c0,-1.89469 -1.53187,-3.44 -3.44,-3.44h-10.32v-6.88h10.32c1.90813,0 3.44,-1.54531 3.44,-3.44c0,-1.89469 -1.53187,-3.44 -3.44,-3.44h-10.32v-6.88h10.32c1.90813,0 3.44,-1.54531 3.44,-3.44c0,-1.89469 -1.53187,-3.44 -3.44,-3.44h-10.32v-13.76c0,-10.45437 -8.10281,-17.2 -20.64,-17.2c-12.53719,0 -20.64,6.74563 -20.64,17.2v77.80313c-12.77906,7.37719 -20.64,20.86844 -20.64,35.71687c0,22.76313 18.51688,41.28 41.28,41.28c22.76313,0 41.28,-18.51687 41.28,-41.28c0,-14.835 -7.8475,-28.33969 -20.64,-35.71687zM86,6.88c4.13875,0 13.76,1.00781 13.76,10.32v13.76h-27.52v-13.76c0,-9.31219 9.62125,-10.32 13.76,-10.32z"></path></g></g></svg>