<svg xmlns="http://www.w3.org/2000/svg" x="0px" y="0px"
width="64" height="64"
viewBox="0 0 172 172"
style=" fill:#000000;"><defs><linearGradient x1="56.89706" y1="46.74906" x2="56.89706" y2="86.95138" gradientUnits="userSpaceOnUse" id="color-1_hEcajWD6eGm9_gr1"><stop offset="0" stop-color="#fcf3fd"></stop><stop offset="1" stop-color="#73c6f7"></stop></linearGradient><linearGradient x1="86" y1="24.1875" x2="86" y2="147.8125" gradientUnits="userSpaceOnUse" id="color-2_hEcajWD6eGm9_gr2"><stop offset="0" stop-color="#e090f0"></stop><stop offset="1" stop-color="#0e9bec"></stop></linearGradient><linearGradient x1="90.03125" y1="53.75" x2="90.03125" y2="118.25" gradientUnits="userSpaceOnUse" id="color-3_hEcajWD6eGm9_gr3"><stop offset="0" stop-color="#e090f0"></stop><stop offset="1" stop-color="#0e9bec"></stop></linearGradient></defs><g fill="none" fill-rule="nonzero" stroke="none" stroke-width="1" stroke-linecap="butt" stroke-linejoin="miter" stroke-miterlimit="10" stroke-dasharray="" stroke-dashoffset="0" font-family="none" font-weight="none" font-size="none" text-anchor="none" style="mix-blend-mode: normal"><path d="M0,172v-172h172v172z" fill="#393c41"></path><g id="original-icon"><path d="M60.42037,81.06575c-0.08869,-0.80894 -0.14512,-1.62594 -0.14512,-2.45637c0,-10.02438 6.69994,-18.48462 15.8885,-21.22856c-3.49912,-6.33713 -10.24206,-10.63175 -17.99281,-10.63175c-9.70725,0 -17.83963,6.7295 -19.99231,15.77831c-0.172,0.72025 -0.30369,1.45394 -0.39775,2.20106c-0.10212,0.84119 -0.15588,1.6985 -0.15588,2.56925c0,9.26381 6.13019,17.08981 14.5555,19.65369c2.107,-2.67406 4.94231,-4.75687 8.23987,-5.88563z" fill="url(#color-1_hEcajWD6eGm9_gr1)"></path><path d="M134.375,24.1875h-96.75c-7.40944,0 -13.4375,6.02806 -13.4375,13.4375v96.75c0,7.40944 6.02806,13.4375 13.4375,13.4375h96.75c7.40944,0 13.4375,-6.02806 13.4375,-13.4375v-96.75c0,-7.40944 -6.02806,-13.4375 -13.4375,-13.4375zM142.4375,134.375c0,4.44513 -3.61737,8.0625 -8.0625,8.0625h-96.75c-4.44512,0 -8.0625,-3.61737 -8.0625,-8.0625v-96.75c0,-4.44512 3.61738,-8.0625 8.0625,-8.0625h96.75c4.44513,0 8.0625,3.61738 8.0625,8.0625z" fill="url(#color-2_hEcajWD6eGm9_gr2)"></path><path d="M110.85938,71.4875c-1.204,0 -2.55581,0.04031 -4.01244,0.258c-2.9885,-10.43556 -12.94569,-17.9955 -24.25469,-17.9955c-13.78687,0 -25.0045,11.15044 -25.0045,24.85938c0,0.23112 0.00269,0.46225 0.01075,0.69338c-7.2025,3.31369 -11.911,10.51619 -11.911,18.52225c0,11.26063 9.21544,20.425 20.54056,20.425h44.63131c12.96719,0 23.51563,-10.48931 23.51563,-23.38125c0,-12.89194 -10.54844,-23.38125 -23.51562,-23.38125zM110.85938,112.875h-44.63131c-8.3635,0 -15.16556,-6.751 -15.16556,-15.05c0,-6.41237 4.10919,-12.12331 10.22862,-14.21687l2.03981,-0.69606l-0.2365,-2.14194c-0.07794,-0.71219 -0.129,-1.42975 -0.129,-2.16075c0,-10.74462 8.80425,-19.48437 19.6295,-19.48437c9.68037,0 18.08956,6.9875 19.565,16.254l0.48913,3.06913l2.967,-0.92719c1.49962,-0.46762 3.01806,-0.65844 5.246,-0.65844c10.00287,0 18.14063,8.07594 18.14063,18.00625c0,9.93031 -8.14044,18.00625 -18.14331,18.00625z" fill="url(#color-3_hEcajWD6eGm9_gr3)"></path></g></g></svg>