<svg xmlns="http://www.w3.org/2000/svg" x="0px" y="0px"
width="64" height="64"
viewBox="0 0 172 172"
style=" fill:#000000;"><defs><linearGradient x1="22.84375" y1="105.26938" x2="22.84375" y2="125.48475" gradientUnits="userSpaceOnUse" id="color-1_dZTNfTODW2bZ_gr1"><stop offset="0" stop-color="#fcf3fd"></stop><stop offset="1" stop-color="#73c6f7"></stop></linearGradient><linearGradient x1="46.35938" y1="29.5625" x2="46.35938" y2="144.87238" gradientUnits="userSpaceOnUse" id="color-2_dZTNfTODW2bZ_gr2"><stop offset="0" stop-color="#e090f0"></stop><stop offset="1" stop-color="#0e9bec"></stop></linearGradient><linearGradient x1="98.22813" y1="29.5625" x2="98.22813" y2="144.87238" gradientUnits="userSpaceOnUse" id="color-3_dZTNfTODW2bZ_gr3"><stop offset="0" stop-color="#e090f0"></stop><stop offset="1" stop-color="#0e9bec"></stop></linearGradient><linearGradient x1="86.00269" y1="29.5625" x2="86.00269" y2="144.87238" gradientUnits="userSpaceOnUse" id="color-4_dZTNfTODW2bZ_gr4"><stop offset="0" stop-color="#e090f0"></stop><stop offset="1" stop-color="#0e9bec"></stop></linearGradient></defs><g fill="none" fill-rule="nonzero" stroke="none" stroke-width="1" stroke-linecap="butt" stroke-linejoin="miter" stroke-miterlimit="10" stroke-dasharray="" stroke-dashoffset="0" font-family="none" font-weight="none" font-size="none" text-anchor="none" style="mix-blend-mode: normal"><path d="M0,172v-172h172v172z" fill="#393c41"></path><g><path d="M29.5625,104.67813c-7.42019,0 -13.4375,6.01731 -13.4375,13.4375c0,7.42019 6.01731,13.4375 13.4375,13.4375z" fill="url(#color-1_dZTNfTODW2bZ_gr1)"></path><path d="M34.9375,79.14687h5.375c0,-9.632 7.83675,-17.46875 17.46875,-17.46875v-5.375c-12.59631,0 -22.84375,10.24744 -22.84375,22.84375z" fill="url(#color-2_dZTNfTODW2bZ_gr2)"></path><path d="M98.22813,42.86563c-4.95306,0 -9.57019,2.451 -12.35444,6.55481l4.4505,3.01537c1.77913,-2.62838 4.73538,-4.19519 7.90125,-4.19519c3.17125,0 6.12481,1.56681 7.90394,4.19519l4.4505,-3.01537c-2.78156,-4.1065 -7.396,-6.55481 -12.35175,-6.55481z" fill="url(#color-3_dZTNfTODW2bZ_gr3)"></path><path d="M157.06288,81.90425c0.989,-2.59075 1.49963,-5.3535 1.49963,-8.13237c0,-12.59631 -10.24744,-22.84375 -22.84375,-22.84375c-3.42925,0 -6.75369,0.75787 -9.79594,2.21719c-2.22256,-13.27894 -13.81644,-23.44575 -27.69737,-23.44575c-12.03194,0 -22.73356,7.76419 -26.574,19.04631c-5.88294,-2.66869 -12.58556,-3.71413 -19.44675,-2.60419c-13.88094,2.23869 -25.20337,13.49125 -27.53344,27.36144c-1.20131,7.16756 -0.13706,14.35931 3.00731,20.69106c-11.21494,1.12337 -20.47606,9.55675 -22.04825,20.4895c-1.00781,7.02512 1.04813,14.09862 5.64644,19.40375c4.601,5.30513 11.266,8.35006 18.28575,8.35006h100.11744c10.56188,0 19.44406,-7.58681 20.66688,-17.64344c0.51062,-4.20325 -0.31444,-8.40919 -2.27094,-12.05344h2.42413c8.89294,0 16.125,-7.23206 16.125,-16.125c0,-6.407 -3.87,-12.15825 -9.56213,-14.71138zM145.00944,124.14369c-0.89225,7.36644 -7.482,12.91881 -15.3295,12.91881h-100.11744c-5.45831,0 -10.64519,-2.36769 -14.22225,-6.49838c-3.63081,-4.18712 -5.18688,-9.55675 -4.386,-15.11987c1.30881,-9.12406 9.59706,-16.00675 19.28012,-16.00675h12.76563v-5.375h-9.21006c-3.60125,-5.83725 -4.97725,-12.76025 -3.81625,-19.67519c1.95381,-11.6315 11.44875,-21.06463 23.08831,-22.94319c15.04731,-2.42681 29.25344,7.25356 32.33869,22.04825l0.59931,2.87025v12.32487h5.375v-14.28944c2.752,-1.10456 5.633,-1.72806 8.6,-1.82212c11.36275,-0.35475 21.62363,7.21863 25.21412,18.41206c1.16369,3.62813 1.36794,7.29925 0.72831,11.137h-7.66744v5.375h12.09375c4.22744,0 8.26137,1.81675 11.06713,4.98531c2.84606,3.20888 4.12262,7.35031 3.59856,11.65838zM150.5,107.36563h-6.61394c-3.42925,-3.11213 -7.83944,-4.9665 -12.48344,-5.21106c0.59931,-4.37525 0.23381,-8.66988 -1.09381,-12.80862c-4.3215,-13.46975 -16.92587,-22.55887 -30.50044,-22.14231c-3.43462,0.1075 -6.77787,0.77937 -9.97331,2.00219c-2.3435,-7.50081 -7.18369,-13.66594 -13.39719,-17.80737c2.8165,-9.62394 11.73363,-16.32387 21.79025,-16.32387c12.47,0 22.65294,10.14531 22.704,22.61531l0.00537,9.36325h5.375v-7.912c2.82456,-1.8275 6.03612,-2.838 9.40625,-2.838c9.632,0 17.46875,7.83675 17.46875,17.46875c0,2.30856 -0.47837,4.59563 -1.36256,6.71875h-6.69994v5.375h6.4715l1.19862,0.26069c4.89931,1.06694 8.45488,5.47713 8.45488,10.48931c0,5.92594 -4.82137,10.75 -10.75,10.75z" fill="url(#color-4_dZTNfTODW2bZ_gr4)"></path></g></g></svg>