<svg xmlns="http://www.w3.org/2000/svg" x="0px" y="0px"
width="64" height="64"
viewBox="0 0 172 172"
style=" fill:#000000;"><defs><linearGradient x1="86" y1="20.15625" x2="86" y2="118.97831" gradientUnits="userSpaceOnUse" id="color-1_49466_gr1"><stop offset="0" stop-color="#e090f0"></stop><stop offset="1" stop-color="#0e9bec"></stop></linearGradient><linearGradient x1="33.59375" y1="20.15625" x2="33.59375" y2="118.97831" gradientUnits="userSpaceOnUse" id="color-2_49466_gr2"><stop offset="0" stop-color="#e090f0"></stop><stop offset="1" stop-color="#0e9bec"></stop></linearGradient><linearGradient x1="56.4375" y1="20.15625" x2="56.4375" y2="118.97831" gradientUnits="userSpaceOnUse" id="color-3_49466_gr3"><stop offset="0" stop-color="#e090f0"></stop><stop offset="1" stop-color="#0e9bec"></stop></linearGradient><linearGradient x1="104.8125" y1="104.8125" x2="104.8125" y2="152.23075" gradientUnits="userSpaceOnUse" id="color-4_49466_gr4"><stop offset="0" stop-color="#fcf3fd"></stop><stop offset="1" stop-color="#73c6f7"></stop></linearGradient><linearGradient x1="64.5" y1="98.09375" x2="64.5" y2="134.67869" gradientUnits="userSpaceOnUse" id="color-5_49466_gr5"><stop offset="0" stop-color="#fcf3fd"></stop><stop offset="1" stop-color="#73c6f7"></stop></linearGradient></defs><g fill="none" fill-rule="nonzero" stroke="none" stroke-width="1" stroke-linecap="butt" stroke-linejoin="miter" stroke-miterlimit="10" stroke-dasharray="" stroke-dashoffset="0" font-family="none" font-weight="none" font-size="none" text-anchor="none" style="mix-blend-mode: normal"><path d="M0,172v-172h172v172z" fill="#393c41"></path><g><path d="M137.0625,80.625h-0.53213c1.19056,-2.6875 1.87588,-6.14362 1.87588,-9.40625c0,-14.07712 -11.45413,-25.53125 -25.53125,-25.53125c-5.09013,0 -9.95181,1.4835 -14.09863,4.24356c-3.01806,-14.67375 -16.03362,-25.74356 -31.58887,-25.74356c-17.78319,0 -32.25,14.46681 -32.25,32.25c0,4.72194 1.02394,9.33638 2.98313,13.55844c-12.22006,1.20669 -21.79562,11.53744 -21.79562,24.06656c0,13.33806 10.84944,24.1875 24.1875,24.1875h96.75c10.37106,0 18.8125,-8.44144 18.8125,-18.8125c0,-10.37106 -8.44144,-18.8125 -18.8125,-18.8125zM137.0625,112.875h-96.75c-10.37106,0 -18.8125,-8.44144 -18.8125,-18.8125c0,-10.37106 8.44144,-18.8125 18.8125,-18.8125h10.75v-5.375h-7.07888c-2.36769,-5.375 -3.67112,-8.67525 -3.67112,-13.4375c0,-14.81887 12.05613,-26.875 26.875,-26.875c14.81887,0 26.875,12.05613 26.875,26.875v5.375h5.375v-5.375c0,-0.0645 -0.00806,-0.129 -0.01075,-0.1935c3.70606,-3.33519 8.43069,-5.1815 13.44825,-5.1815c11.1155,0 20.15625,9.04075 20.15625,20.15625c0,3.311 -0.84119,6.71875 -2.38112,9.40625h-4.33763v5.375h10.75c7.40944,0 13.4375,6.02806 13.4375,13.4375c0,7.40944 -6.02806,13.4375 -13.4375,13.4375z" fill="url(#color-1_49466_gr1)"></path><path d="M26.875,94.0625c0,7.40944 6.02806,13.4375 13.4375,13.4375v-5.375c-4.44512,0 -8.0625,-3.61738 -8.0625,-8.0625c0,-4.44512 3.61738,-8.0625 8.0625,-8.0625v-5.375c-7.40944,0 -13.4375,6.02806 -13.4375,13.4375z" fill="url(#color-2_49466_gr2)"></path><path d="M45.6875,56.4375h5.375c0,-8.0625 7.23206,-16.125 16.125,-16.125v-5.375c-11.85456,0 -21.5,10.75 -21.5,21.5z" fill="url(#color-3_49466_gr3)"></path><path d="M120.9375,131.6875c0,9.03538 -7.43094,16.33463 -16.512,16.11962c-5.35887,-0.12631 -10.29044,-3.15244 -13.21712,-7.64325c-7.48469,-11.48369 3.48569,-25.27056 9.74756,-31.70713c2.11775,-2.17688 5.59,-2.17956 7.70775,-0.00538c4.77031,4.90469 12.27381,14.06906 12.27381,23.23613z" fill="url(#color-4_49466_gr4)"></path><path d="M77.9375,118.25c0,7.42019 -6.01462,13.43481 -13.43481,13.4375c-2.80038,0 -5.47444,-1.15562 -7.69163,-2.87025c-12.16631,-9.40894 -2.16613,-22.41375 3.8915,-28.56813c2.07744,-2.10969 5.504,-2.11775 7.58144,-0.00806c3.9775,4.03394 9.6535,11.02144 9.6535,18.00894z" fill="url(#color-5_49466_gr5)"></path></g></g></svg>