<svg xmlns="http://www.w3.org/2000/svg" x="0px" y="0px"
width="48" height="48"
viewBox="0 0 172 172"
style=" fill:#000000;"><defs><linearGradient x1="56.29058" y1="32.50083" x2="125.33067" y2="116.52283" gradientUnits="userSpaceOnUse" id="color-1_hpwbr3sG19tQ_gr1"><stop offset="0" stop-color="#32bdef"></stop><stop offset="1" stop-color="#1ea2e4"></stop></linearGradient></defs><g fill="none" fill-rule="nonzero" stroke="none" stroke-width="1" stroke-linecap="butt" stroke-linejoin="miter" stroke-miterlimit="10" stroke-dasharray="" stroke-dashoffset="0" font-family="none" font-weight="none" font-size="none" text-anchor="none" style="mix-blend-mode: normal"><path d="M0,172v-172h172v172z" fill="#393c41"></path><g><path d="M146.91667,89.58333h-10.75c-1.98158,0 -3.58333,-1.60533 -3.58333,-3.58333c0,-1.978 1.60175,-3.58333 3.58333,-3.58333h10.75c1.98158,0 3.58333,1.60533 3.58333,3.58333c0,1.978 -1.60175,3.58333 -3.58333,3.58333z" fill="#64717c"></path><path d="M146.91667,57.33333h-10.75c-1.98158,0 -3.58333,-1.60533 -3.58333,-3.58333c0,-1.978 1.60175,-3.58333 3.58333,-3.58333h10.75c1.98158,0 3.58333,1.60533 3.58333,3.58333c0,1.978 -1.60175,3.58333 -3.58333,3.58333z" fill="#64717c"></path><path d="M146.91667,121.83333h-10.75c-1.98158,0 -3.58333,-1.60533 -3.58333,-3.58333c0,-1.978 1.60175,-3.58333 3.58333,-3.58333h10.75c1.98158,0 3.58333,1.60533 3.58333,3.58333c0,1.978 -1.60175,3.58333 -3.58333,3.58333z" fill="#64717c"></path><path d="M146.91667,154.08333h-10.75c-1.98158,0 -3.58333,-1.60533 -3.58333,-3.58333c0,-1.978 1.60175,-3.58333 3.58333,-3.58333h7.16667v-121.83333h-7.16667c-1.98158,0 -3.58333,-1.60533 -3.58333,-3.58333c0,-1.978 1.60175,-3.58333 3.58333,-3.58333h10.75c1.98158,0 3.58333,1.60533 3.58333,3.58333v129c0,1.978 -1.60175,3.58333 -3.58333,3.58333z" fill="#abb4be"></path><path d="M78.72225,24.38458c0,-0.00717 0.11108,-0.59842 0.11108,-1.09292c0,-2.967 -2.408,-5.375 -5.375,-5.375c-1.02842,0 -2.02458,0.387 -2.02458,0.387c-5.88383,2.29692 -20.04517,14.91025 -32.32167,31.863h45.71617c-5.36067,-7.00542 -8.48533,-14.89233 -6.106,-25.78208z" fill="url(#color-1_hpwbr3sG19tQ_gr1)"></path><path d="M118.25,103.91667c0,-27.74217 -21.89775,-38.68925 -33.42533,-53.75h-45.71258c-11.40933,15.75233 -21.19542,35.25283 -21.19542,53.75c0,27.70633 22.46033,50.16667 50.16667,50.16667c30.4655,0 50.16667,-25.66025 50.16667,-50.16667z" fill="#007ad9"></path></g></g></svg>