<svg xmlns="http://www.w3.org/2000/svg" x="0px" y="0px"
width="50" height="50"
viewBox="0 0 172 172"
style=" fill:#4a90e2;"><g fill="none" fill-rule="nonzero" stroke="none" stroke-width="1" stroke-linecap="butt" stroke-linejoin="miter" stroke-miterlimit="10" stroke-dasharray="" stroke-dashoffset="0" font-family="none" font-weight="none" font-size="none" text-anchor="none" style="mix-blend-mode: normal"><path d="M0,172v-172h172v172z" fill="#393c41"></path><g id="original-icon" fill="#3498db"><path d="M86,6.88c-43.63156,0 -79.12,35.48844 -79.12,79.12c0,43.63156 35.48844,79.12 79.12,79.12c43.63156,0 79.12,-35.48844 79.12,-79.12c0,-43.63156 -35.48844,-79.12 -79.12,-79.12zM103.88531,33.83563c0.72562,-1.76031 2.74125,-2.59344 4.50156,-1.86781c1.76031,0.73906 2.59344,2.74125 1.85437,4.50156c-0.72562,1.76031 -2.72781,2.59344 -4.48812,1.85437c-1.76031,-0.72562 -2.59344,-2.74125 -1.86781,-4.48812zM86,27.52c1.89469,0 3.44,1.54531 3.44,3.44c0,1.89469 -1.54531,3.44 -3.44,3.44c-1.89469,0 -3.44,-1.54531 -3.44,-3.44c0,-1.89469 1.54531,-3.44 3.44,-3.44zM63.62656,31.96781c1.74687,-0.72563 3.7625,0.1075 4.48812,1.86781c0.73906,1.74687 -0.1075,3.7625 -1.85437,4.48812c-1.76031,0.73906 -3.77594,-0.1075 -4.50156,-1.85437c-0.72562,-1.76031 0.1075,-3.77594 1.86781,-4.50156zM31.98125,63.61313c0.72563,-1.74688 2.72781,-2.58 4.48813,-1.85438c1.76031,0.72563 2.59344,2.74125 1.86781,4.50156c-0.73906,1.74687 -2.74125,2.58 -4.50156,1.85437c-1.76031,-0.72562 -2.59344,-2.74125 -1.85438,-4.50156zM27.52,86c0,-1.89469 1.54531,-3.44 3.44,-3.44c1.89469,0 3.44,1.54531 3.44,3.44c0,1.89469 -1.54531,3.44 -3.44,3.44c-1.89469,0 -3.44,-1.54531 -3.44,-3.44zM36.46938,110.24125c-1.74688,0.72563 -3.7625,-0.1075 -4.48813,-1.85437c-0.73906,-1.76031 0.09406,-3.77594 1.85438,-4.50156c1.76031,-0.72563 3.7625,0.1075 4.50156,1.85437c0.72563,1.76031 -0.1075,3.77594 -1.86781,4.50156zM44.65281,44.65281c1.34375,-1.34375 3.52062,-1.34375 4.86437,0c1.34375,1.34375 1.34375,3.52062 0,4.86437c-1.34375,1.34375 -3.53406,1.34375 -4.86437,0c-1.34375,-1.34375 -1.34375,-3.52062 0,-4.86437zM49.51719,127.34719c-1.34375,1.34375 -3.53406,1.34375 -4.86437,0c-1.34375,-1.34375 -1.34375,-3.52062 0,-4.86437c1.34375,-1.34375 3.52062,-1.34375 4.86437,0c1.34375,1.34375 1.34375,3.52062 0,4.86437zM68.11469,138.16438c-0.72562,1.76031 -2.72781,2.59344 -4.48812,1.86781c-1.76031,-0.73906 -2.59344,-2.74125 -1.86781,-4.50156c0.72563,-1.76031 2.74125,-2.59344 4.50156,-1.85438c1.74687,0.72563 2.58,2.74125 1.85437,4.48813zM108.38688,140.03219c-1.76031,0.72563 -3.77594,-0.1075 -4.50156,-1.86781c-0.72563,-1.74688 0.1075,-3.7625 1.86781,-4.48813c1.74687,-0.73906 3.7625,0.1075 4.48812,1.85438c0.73906,1.76031 -0.1075,3.77594 -1.85437,4.50156zM113.39906,72.06531l-4.3,-4.3l-13.81375,13.81375c0.645,1.34375 1.03469,2.83531 1.03469,4.42094c0,5.6975 -4.6225,10.32 -10.32,10.32c-1.58562,0 -3.07719,-0.38969 -4.42094,-1.03469l-10.40063,10.40062c0.92719,1.96188 1.29,4.16563 0.87344,6.35594c-0.3225,1.65281 -1.76031,2.795 -3.37281,2.795c-0.215,0 -0.44344,-0.02688 -0.65844,-0.06719c-1.86781,-0.36281 -3.07719,-2.16344 -2.72781,-4.03125c0.20156,-1.02125 -0.09406,-2.05594 -0.7525,-2.84875c-0.08063,-0.06719 -0.18813,-0.09406 -0.25531,-0.17469c-0.08062,-0.08062 -0.1075,-0.17469 -0.18812,-0.26875c-0.77938,-0.645 -1.81406,-0.92719 -2.83531,-0.73906c-1.86781,0.34938 -3.66844,-0.86 -4.03125,-2.72781c-0.36281,-1.86781 0.86,-3.66844 2.72781,-4.03125c2.19031,-0.41656 4.39406,-0.05375 6.35594,0.87344l10.40062,-10.40063c-0.645,-1.34375 -1.03469,-2.83531 -1.03469,-4.42094c0,-5.6975 4.6225,-10.32 10.32,-10.32c1.58563,0 3.07719,0.38969 4.42094,1.03469l13.81375,-13.81375l-4.3,-4.3l17.02531,-3.56094zM122.48281,44.65281c1.34375,-1.34375 3.52062,-1.34375 4.86437,0c1.34375,1.34375 1.34375,3.52062 0,4.86437c-1.34375,1.33031 -3.52062,1.34375 -4.86437,0c-1.34375,-1.34375 -1.34375,-3.53406 0,-4.86437zM127.34719,127.34719c-1.34375,1.34375 -3.52062,1.34375 -4.86437,0c-1.34375,-1.34375 -1.34375,-3.52062 0,-4.86437c1.34375,-1.34375 3.53406,-1.34375 4.86437,0c1.34375,1.34375 1.34375,3.52062 0,4.86437zM135.53063,61.75875c1.76031,-0.72562 3.77594,0.1075 4.50156,1.85438c0.72563,1.76031 -0.1075,3.77594 -1.86781,4.50156c-1.74688,0.72563 -3.7625,-0.1075 -4.48813,-1.85437c-0.72562,-1.76031 0.1075,-3.77594 1.85438,-4.50156zM140.03219,108.37344c-0.72562,1.76031 -2.74125,2.59344 -4.50156,1.86781c-1.74688,-0.72562 -2.58,-2.74125 -1.85438,-4.50156c0.72563,-1.76031 2.74125,-2.59344 4.48813,-1.85437c1.76031,0.72562 2.59344,2.74125 1.86781,4.48812zM141.04,89.44c-1.89469,0 -3.44,-1.54531 -3.44,-3.44c0,-1.89469 1.54531,-3.44 3.44,-3.44c1.89469,0 3.44,1.54531 3.44,3.44c0,1.89469 -1.54531,3.44 -3.44,3.44z"></path></g></g></svg>