<svg xmlns="http://www.w3.org/2000/svg" x="0px" y="0px"
width="48" height="48"
viewBox="0 0 172 172"
style=" fill:#000000;"><g fill="none" fill-rule="nonzero" stroke="none" stroke-width="none" stroke-linecap="none" stroke-linejoin="none" stroke-miterlimit="10" stroke-dasharray="" stroke-dashoffset="0" font-family="none" font-weight="none" font-size="none" text-anchor="none" style="mix-blend-mode: normal"><path d="M0,172v-172h172v172z" fill="#393c41" stroke="none" stroke-width="1" stroke-linecap="butt" stroke-linejoin="miter"></path><g fill="none" stroke-width="14.33333" stroke-linecap="round" stroke-linejoin="round"><path d="M35.83333,60.91667c0,0 39.84308,0 46.58333,0c9.89358,0 17.91667,-8.02308 17.91667,-17.91667c0,-9.89358 -8.02308,-17.91667 -17.91667,-17.91667c-7.06633,0 -13.17592,4.08858 -16.09275,10.02975" stroke="#35c1f1"></path><path d="M21.5,89.58333c0,0 100.2975,0 111.08333,0c15.83117,0 28.66667,12.8355 28.66667,28.66667c0,15.83117 -12.8355,28.66667 -28.66667,28.66667c-11.30542,0 -21.08075,-6.54317 -25.74625,-16.04975" stroke="#199be2"></path><path d="M10.75,118.25c0,0 39.84308,0 46.58333,0c9.89358,0 17.91667,8.02308 17.91667,17.91667c0,9.89358 -8.02308,17.91667 -17.91667,17.91667c-7.06633,0 -13.17592,-4.08858 -16.09275,-10.02975" stroke="#0078d4"></path></g></g></svg>