<svg xmlns="http://www.w3.org/2000/svg" x="0px" y="0px"
width="64" height="64"
viewBox="0 0 172 172"
style=" fill:#000000;"><defs><linearGradient x1="106.15625" y1="105.09738" x2="106.15625" y2="129.97556" gradientUnits="userSpaceOnUse" id="color-1_ZlTgyeW6Gxjh_gr1"><stop offset="0" stop-color="#8ab4ff"></stop><stop offset="1" stop-color="#e492ff"></stop></linearGradient><linearGradient x1="93.39063" y1="30.01938" x2="93.39063" y2="137.29094" gradientUnits="userSpaceOnUse" id="color-2_ZlTgyeW6Gxjh_gr2"><stop offset="0" stop-color="#1a6dff"></stop><stop offset="1" stop-color="#c822ff"></stop></linearGradient><linearGradient x1="139.07813" y1="30.01938" x2="139.07813" y2="137.29094" gradientUnits="userSpaceOnUse" id="color-3_ZlTgyeW6Gxjh_gr3"><stop offset="0" stop-color="#1a6dff"></stop><stop offset="1" stop-color="#c822ff"></stop></linearGradient><linearGradient x1="94.0625" y1="30.01938" x2="94.0625" y2="137.29094" gradientUnits="userSpaceOnUse" id="color-4_ZlTgyeW6Gxjh_gr4"><stop offset="0" stop-color="#1a6dff"></stop><stop offset="1" stop-color="#c822ff"></stop></linearGradient><linearGradient x1="33.59375" y1="30.01938" x2="33.59375" y2="137.29094" gradientUnits="userSpaceOnUse" id="color-5_ZlTgyeW6Gxjh_gr5"><stop offset="0" stop-color="#1a6dff"></stop><stop offset="1" stop-color="#c822ff"></stop></linearGradient><linearGradient x1="80.625" y1="30.01938" x2="80.625" y2="137.29094" gradientUnits="userSpaceOnUse" id="color-6_ZlTgyeW6Gxjh_gr6"><stop offset="0" stop-color="#1a6dff"></stop><stop offset="1" stop-color="#c822ff"></stop></linearGradient><linearGradient x1="88.01563" y1="30.01938" x2="88.01563" y2="137.29094" gradientUnits="userSpaceOnUse" id="color-7_ZlTgyeW6Gxjh_gr7"><stop offset="0" stop-color="#1a6dff"></stop><stop offset="1" stop-color="#c822ff"></stop></linearGradient><linearGradient x1="47.03125" y1="30.01938" x2="47.03125" y2="137.29094" gradientUnits="userSpaceOnUse" id="color-8_ZlTgyeW6Gxjh_gr8"><stop offset="0" stop-color="#1a6dff"></stop><stop offset="1" stop-color="#c822ff"></stop></linearGradient></defs><g fill="none" fill-rule="nonzero" stroke="none" stroke-width="1" stroke-linecap="butt" stroke-linejoin="miter" stroke-miterlimit="10" stroke-dasharray="" stroke-dashoffset="0" font-family="none" font-weight="none" font-size="none" text-anchor="none" style="mix-blend-mode: normal"><path d="M0,172v-172h172v172z" fill="#393c41"></path><g><path d="M99.4375,104.8125v26.875c7.42019,0 13.4375,-6.01731 13.4375,-13.4375c0,-7.42019 -6.01731,-13.4375 -13.4375,-13.4375z" fill="url(#color-1_ZlTgyeW6Gxjh_gr1)"></path><g><path d="M133.03125,43v5.375c9.632,0 17.46875,7.83675 17.46875,17.46875c0,9.632 -7.83675,17.46875 -17.46875,17.46875h-102.125v5.375h102.125c12.59631,0 22.84375,-10.24744 22.84375,-22.84375c0,-12.59631 -10.24744,-22.84375 -22.84375,-22.84375z" fill="url(#color-2_ZlTgyeW6Gxjh_gr2)"></path><path d="M139.75,65.84375h5.375c0,-6.66769 -5.42606,-12.09375 -12.09375,-12.09375v5.375c3.70337,0 6.71875,3.01537 6.71875,6.71875z" fill="url(#color-3_ZlTgyeW6Gxjh_gr3)"></path><path d="M99.4375,94.0625h-34.9375v5.375h34.9375c10.37375,0 18.8125,8.43875 18.8125,18.8125c0,10.37375 -8.43875,18.8125 -18.8125,18.8125c-4.58756,0 -9.00581,-1.66894 -12.44044,-4.70044l-3.55556,4.02856c4.41556,3.89956 10.09694,6.04688 15.996,6.04688c13.33538,0 24.1875,-10.85212 24.1875,-24.1875c0,-13.33538 -10.85212,-24.1875 -24.1875,-24.1875z" fill="url(#color-4_ZlTgyeW6Gxjh_gr4)"></path><rect x="6" y="35" transform="scale(2.6875,2.6875)" width="13" height="2" fill="url(#color-5_ZlTgyeW6Gxjh_gr5)"></rect><path d="M83.48988,75.19894c11.95669,-0.78744 21.32263,-10.79837 21.32263,-22.79269c0,-12.59631 -10.24744,-22.84375 -22.84375,-22.84375c-12.59631,0 -22.84375,10.24744 -22.84375,22.84375h5.375c0,-9.632 7.83675,-17.46875 17.46875,-17.46875c9.632,0 17.46875,7.83675 17.46875,17.46875c0,9.17244 -7.16219,16.82913 -16.30775,17.43113c-0.38162,0.02687 -0.77131,0.03762 -1.161,0.03762h-25.53125v5.375c0,0 26.99325,-0.04569 27.05238,-0.05106z" fill="url(#color-6_ZlTgyeW6Gxjh_gr6)"></path><path d="M88.6875,52.40625h5.375c0,-6.66769 -5.42606,-12.09375 -12.09375,-12.09375v5.375c3.70337,0 6.71875,3.01537 6.71875,6.71875z" fill="url(#color-7_ZlTgyeW6Gxjh_gr7)"></path><rect x="16" y="26" transform="scale(2.6875,2.6875)" width="3" height="2" fill="url(#color-8_ZlTgyeW6Gxjh_gr8)"></rect></g></g></g></svg>